<svg width="158" height="158" viewBox="0 0 158 158" fill="none" xmlns="http://www.w3.org/2000/svg">
<path d="M62.8393 71.6519C64.3724 70.5418 65.1125 68.7092 65.1125 66.1893C65.1653 64.9911 64.9186 63.8105 64.39 62.7356C63.9142 61.8721 63.2094 61.1496 62.3459 60.6386C61.4507 60.0957 60.4563 59.7363 59.4208 59.5813C58.293 59.3699 57.1477 59.2642 56.0199 59.2818H43.6321V73.3259H57.0419C59.3503 73.3436 61.3063 72.7797 62.8393 71.6519ZM64.9186 84.3392C63.1918 83.0177 60.8834 82.3657 58.0111 82.3657H43.5969V98.9297H57.7292C59.0508 98.9297 60.2666 98.8063 61.4472 98.5596C62.5643 98.3412 63.6291 97.9105 64.5838 97.2909C65.4825 96.7094 66.205 95.9164 66.7513 94.8944C67.2799 93.8724 67.5442 92.5684 67.5442 91.0001C67.5442 87.8811 66.6631 85.6785 64.9186 84.3392ZM78.998 0.0566406C35.403 0.0566406 0.0546875 35.4049 0.0546875 79C0.0546875 122.595 35.403 157.943 78.998 157.943C122.593 157.943 157.941 122.595 157.941 79C157.941 35.4049 122.593 0.0566406 78.998 0.0566406ZM94.2405 50.6121H118.628V56.5505H94.2405V50.6121ZM78.998 99.5817C77.8574 101.747 76.2285 103.617 74.2403 105.044C72.161 106.489 69.8526 107.546 67.4032 108.163C64.8406 108.85 62.1971 109.188 59.5442 109.168H30.3633V49.0614H58.7336C61.6058 49.0614 64.2138 49.3258 66.5927 49.8192C68.9539 50.3125 70.9627 51.1584 72.6544 52.3038C74.3284 53.4491 75.65 54.9822 76.5839 56.8853C77.5002 58.7708 77.976 61.132 77.976 63.9338C77.976 66.9647 77.2888 69.4669 75.9143 71.4933C74.5222 73.5198 72.5134 75.1586 69.7821 76.4449C73.5002 77.5022 76.2315 79.3877 78.0289 82.0309C79.8615 84.7093 80.7602 87.9164 80.7602 91.6873C80.7602 94.7534 80.1787 97.379 78.998 99.5817ZM128.126 90.2776H96.6898C96.6898 93.6962 97.8705 96.9737 99.6502 98.7358C101.448 100.48 104.02 101.361 107.386 101.361C109.818 101.361 111.879 100.745 113.641 99.5288C115.386 98.3129 116.443 97.0266 116.831 95.6874H127.368C125.677 100.921 123.104 104.657 119.615 106.912C116.161 109.168 111.932 110.295 107.016 110.295C103.58 110.295 100.496 109.732 97.7295 108.657C95.0687 107.617 92.6722 106.031 90.6986 103.987C88.7527 101.888 87.2486 99.4189 86.2756 96.727C85.2007 93.749 84.6721 90.6124 84.7074 87.4582C84.7074 84.1983 85.2536 81.1674 86.3109 78.348C88.3373 72.8678 92.5488 68.4801 97.9233 66.2069C100.796 65.0087 103.879 64.4096 106.998 64.4448C110.699 64.4448 113.906 65.1497 116.69 66.5946C119.37 67.9744 121.698 69.9519 123.492 72.3744C125.272 74.7885 126.523 77.5374 127.316 80.6388C128.073 83.6873 128.338 86.8943 128.126 90.2776ZM106.628 73.4317C104.725 73.4317 103.122 73.7665 101.888 74.4185C100.655 75.0705 99.6326 75.881 98.8572 76.815C98.1188 77.7167 97.5731 78.7602 97.2537 79.8811C96.9718 80.815 96.7779 81.7665 96.7074 82.7357H116.179C115.897 79.6872 114.84 77.4317 113.43 75.8458C111.95 74.2775 109.571 73.4317 106.628 73.4317Z" fill="white"/>
</svg>
