<svg width="34" height="34" viewBox="0 0 34 34" fill="none" xmlns="http://www.w3.org/2000/svg">
<path fill-rule="evenodd" clip-rule="evenodd" d="M32.9157 28.9198C31.9157 31.9718 27.9777 33.4926 25.1667 33.2397C21.3277 32.8917 17.1507 30.8556 13.9797 28.6147C9.04018 25.0408 5.06471 20.2974 2.40974 14.809C0.609737 10.985 0.209736 6.28473 2.88274 2.79873C3.28617 2.18918 3.82907 1.68446 4.46643 1.32656C5.10379 0.968667 5.81727 0.767789 6.54774 0.740626C8.77674 0.633626 9.08974 1.90895 9.85474 3.89395C10.4247 5.38095 11.1867 6.89392 11.6117 8.43692C12.4117 11.3109 9.62474 11.4277 9.27374 13.7777C9.05674 15.2587 10.8507 17.2447 11.6617 18.3007C13.2253 20.3571 15.1401 22.1209 17.3177 23.5106C18.5537 24.2886 20.5447 25.6939 21.9587 24.9179C24.1357 23.7269 23.9327 20.0548 26.9747 21.2968C28.5518 22.0083 30.0902 22.8023 31.5837 23.6757C33.9107 24.9277 33.8027 26.2239 32.9157 28.9179" fill="white"/>
</svg>
