<svg width="31" height="26" viewBox="0 0 31 26" fill="none" xmlns="http://www.w3.org/2000/svg">
<path d="M27.002 0H3.00197C2.17449 0.036916 1.39507 0.399086 0.83325 1.00772C0.271432 1.61636 -0.0273264 2.42222 0.00196774 3.25V22.75C-0.0273264 23.5778 0.271432 24.3836 0.83325 24.9923C1.39507 25.6009 2.17449 25.9631 3.00197 26H27.002C27.8294 25.9631 28.6089 25.6009 29.1707 24.9923C29.7325 24.3836 30.0313 23.5778 30.002 22.75V3.25C30.0313 2.42222 29.7325 1.61636 29.1707 1.00772C28.6089 0.399086 27.8294 0.036916 27.002 0ZM26.402 6.906L16.592 13.552C16.1255 13.8772 15.5706 14.0516 15.002 14.0516C14.4333 14.0516 13.8784 13.8772 13.412 13.552L3.60197 6.906C3.41511 6.77374 3.26297 6.59828 3.1585 6.39457C3.05403 6.19086 3.00033 5.96493 3.00197 5.736C2.98528 5.50108 3.03399 5.26612 3.14269 5.05719C3.25139 4.84827 3.41583 4.67353 3.61778 4.55236C3.81973 4.43118 4.0513 4.36832 4.2868 4.37073C4.5223 4.37313 4.75254 4.44072 4.95197 4.566L15.002 11.375L25.052 4.566C25.2514 4.44072 25.4816 4.37313 25.7171 4.37073C25.9526 4.36832 26.1842 4.43118 26.3862 4.55236C26.5881 4.67353 26.7526 4.84827 26.8612 5.05719C26.9699 5.26612 27.0187 5.50108 27.002 5.736C27.0036 5.96493 26.9499 6.19086 26.8454 6.39457C26.741 6.59828 26.5888 6.77374 26.402 6.906Z" fill="white"/>
</svg>
