<svg width="16" height="13" viewBox="0 0 16 13" fill="none" xmlns="http://www.w3.org/2000/svg">
<path d="M15.467 5.78219L10.6058 0.938184C10.4293 0.772133 10.195 0.681558 9.95284 0.685682C9.71066 0.689805 9.47963 0.788313 9.30881 0.960279C9.138 1.13224 9.04086 1.36412 9.03803 1.60666C9.0352 1.84919 9.1269 2.08327 9.29365 2.25918L12.5571 5.51118H1.00024C0.875524 5.50709 0.751255 5.52816 0.634828 5.57313C0.518402 5.6181 0.412196 5.68606 0.322525 5.77296C0.232854 5.85986 0.161549 5.96394 0.112853 6.07899C0.0641565 6.19405 0.0390625 6.31772 0.0390625 6.44269C0.0390625 6.56765 0.0641565 6.69134 0.112853 6.80639C0.161549 6.92145 0.232854 7.02552 0.322525 7.11242C0.412196 7.19933 0.518402 7.26728 0.634828 7.31225C0.751255 7.35722 0.875524 7.37828 1.00024 7.37419H12.5521L9.28866 10.6262C9.1219 10.8021 9.0302 11.0362 9.03304 11.2787C9.03587 11.5213 9.13301 11.7531 9.30382 11.9251C9.47464 12.0971 9.70567 12.1956 9.94785 12.1997C10.19 12.2038 10.4243 12.1132 10.6008 11.9472L15.462 7.10319C15.5492 7.01692 15.6185 6.91425 15.666 6.80108C15.7135 6.68791 15.7381 6.56647 15.7386 6.44372C15.7391 6.32098 15.7153 6.19935 15.6687 6.08583C15.6221 5.9723 15.5536 5.86912 15.467 5.78219Z" fill="#0088FF"/>
</svg>
