<svg width="40" height="40" viewBox="0 0 40 40" fill="none" xmlns="http://www.w3.org/2000/svg">
<path d="M33.6676 23.2325C33.8809 22.2336 33.9872 21.2149 33.9846 20.1935C33.974 18.3256 33.5954 16.478 32.8703 14.7565C32.1452 13.035 31.088 11.4733 29.759 10.1607C28.43 8.848 26.8553 7.81016 25.125 7.10645C23.3946 6.40275 21.5425 6.04698 19.6746 6.0595C18.8576 6.05753 18.042 6.12882 17.2376 6.2725C15.9888 5.48616 14.5529 5.04699 13.0779 5.00026C11.6029 4.95352 10.1421 5.3009 8.84601 6.00661C7.54993 6.71231 6.46543 7.75082 5.70427 9.01513C4.94311 10.2794 4.5328 11.7238 4.51562 13.1995C4.51641 14.6537 4.90659 16.0811 5.64563 17.3335C5.46223 18.2648 5.36748 19.2113 5.36262 20.1605C5.37848 22.0155 5.76263 23.849 6.4928 25.5543C7.22297 27.2597 8.2846 28.8031 9.61608 30.0948C10.9476 31.3866 12.5223 32.401 14.249 33.0792C15.9757 33.7574 17.82 34.0858 19.6746 34.0455C20.5522 34.052 21.4281 33.9685 22.2886 33.7965C23.4774 34.5175 24.827 34.9309 26.2156 34.9995C27.6152 35.0261 28.998 34.6917 30.2308 34.0286C31.4636 33.3655 32.5048 32.396 33.254 31.2136C34.0033 30.0312 34.4353 28.6757 34.5084 27.2778C34.5816 25.8798 34.2934 24.4867 33.6716 23.2325H33.6676ZM26.1756 25.9885C25.5549 26.8205 24.7094 27.4579 23.7386 27.8255C22.537 28.3039 21.2505 28.5323 19.9576 28.4965C18.4558 28.5452 16.9645 28.2302 15.6106 27.5785C14.8189 27.1565 14.1402 26.5505 13.6316 25.8115C13.18 25.1939 12.9221 24.456 12.8906 23.6915C12.8871 23.4972 12.9265 23.3045 13.006 23.1271C13.0855 22.9498 13.2032 22.7921 13.3506 22.6655C13.6684 22.3771 14.0868 22.2251 14.5156 22.2425C14.8626 22.2281 15.2028 22.3416 15.4716 22.5615C15.7665 22.8364 15.9958 23.174 16.1426 23.5495C16.3242 24.0202 16.5746 24.4613 16.8856 24.8585C17.17 25.2316 17.5472 25.5236 17.9796 25.7055C18.5718 25.9549 19.2103 26.0752 19.8526 26.0585C20.7614 26.1081 21.6632 25.8736 22.4326 25.3875C22.7301 25.2135 22.9776 24.9655 23.1511 24.6676C23.3246 24.3698 23.4181 24.0321 23.4226 23.6875C23.433 23.4444 23.391 23.2019 23.2996 22.9764C23.2081 22.751 23.0694 22.5477 22.8926 22.3805C22.5036 22.0141 22.0309 21.7484 21.5156 21.6065C20.9516 21.4295 20.1726 21.2535 19.2156 21.0425C18.1206 20.8107 17.0458 20.4917 16.0016 20.0885C15.1988 19.7668 14.4927 19.2432 13.9516 18.5685C13.4398 17.8881 13.1774 17.0524 13.2086 16.2015C13.2083 15.3338 13.494 14.4903 14.0216 13.8015C14.6211 13.055 15.4179 12.4917 16.3216 12.1755C17.4674 11.7718 18.6772 11.5806 19.8916 11.6115C20.847 11.5996 21.7988 11.7304 22.7156 11.9995C23.4297 12.2064 24.1 12.5419 24.6936 12.9895C25.1664 13.3421 25.5631 13.7867 25.8596 14.2965C26.0868 14.6937 26.2093 15.142 26.2156 15.5995C26.2161 15.7983 26.1755 15.9951 26.0964 16.1775C26.0172 16.36 25.9012 16.524 25.7556 16.6595C25.6105 16.8117 25.4348 16.9314 25.24 17.0107C25.0452 17.09 24.8358 17.1271 24.6256 17.1195C24.2843 17.1398 23.9467 17.0396 23.6716 16.8365C23.3876 16.571 23.1488 16.2609 22.9646 15.9185C22.6835 15.358 22.286 14.864 21.7986 14.4695C21.1451 14.0606 20.3767 13.8747 19.6086 13.9395C18.8155 13.9026 18.0289 14.0994 17.3466 14.5055C17.1016 14.6373 16.8948 14.8302 16.7464 15.0656C16.598 15.3009 16.513 15.5706 16.4996 15.8485C16.5016 16.1537 16.6007 16.4504 16.7826 16.6955C17.0015 16.9579 17.2804 17.1637 17.5956 17.2955C17.9177 17.4711 18.2622 17.6019 18.6196 17.6845C18.9726 17.7905 19.5396 17.9315 20.3506 18.1085C21.3406 18.3215 22.2596 18.5685 23.0726 18.8155C23.8088 19.0337 24.5104 19.3549 25.1566 19.7695C25.7069 20.1311 26.1665 20.6146 26.4996 21.1825C26.8402 21.8241 27.0103 22.5423 26.9936 23.2685C27.0356 24.2407 26.7492 25.1988 26.1806 25.9885H26.1756Z" fill="white"/>
</svg>
