<svg width="39" height="40" viewBox="0 0 39 40" fill="none" xmlns="http://www.w3.org/2000/svg">
<path d="M20.2889 0C16.8378 0.000309332 13.4545 0.9585 10.5157 2.76788C7.57695 4.57726 5.19807 7.1668 3.64396 10.2482C2.08984 13.3296 1.42149 16.7818 1.71332 20.2206C2.00516 23.6593 3.24572 26.9496 5.29688 29.725L0.546875 40L1.78887 39.425L11.3559 35.008C13.8492 36.3679 16.6203 37.1401 19.4575 37.2658C22.2948 37.3914 25.1233 36.8671 27.727 35.7329C30.3308 34.5986 32.641 32.8845 34.4812 30.7213C36.3215 28.5581 37.6431 26.0031 38.3453 23.2512C39.0475 20.4993 39.1117 17.6234 38.5329 14.8429C37.9541 12.0625 36.7477 9.45099 35.0058 7.20789C33.2638 4.96478 31.0324 3.14933 28.4818 1.90014C25.9312 0.650944 23.1289 0.00102639 20.2889 0ZM30.2309 26.6C30.0379 27.5018 29.5143 28.2987 28.7634 28.8339C28.0124 29.3691 27.0883 29.6038 26.1729 29.492C24.4299 29.2882 22.7492 28.7203 21.2399 27.825C18.9979 26.558 17.0136 24.8817 15.3899 22.883C13.7888 20.8898 12.5814 18.6103 11.8319 16.166C11.2757 14.5039 11.0713 12.7443 11.2319 10.999C11.29 10.3518 11.5168 9.7311 11.8899 9.199C12.2637 8.66662 12.7729 8.24372 13.3649 7.974C13.8498 7.74664 14.3793 7.62983 14.9149 7.632C15.7084 7.54827 16.5089 7.70211 17.2149 8.074C17.683 8.47288 18.0528 8.97433 18.2956 9.53938C18.5384 10.1044 18.6477 10.7179 18.6149 11.332C18.6149 11.44 18.6069 11.557 18.5979 11.665C18.6012 12.2854 18.4308 12.8944 18.1059 13.423C17.6686 13.9714 17.1053 14.4061 16.4639 14.69C16.7232 16.6989 17.5338 18.5967 18.8059 20.173C19.3361 20.8879 19.9808 21.5103 20.7139 22.015C21.6325 22.6506 22.6189 23.1822 23.6549 23.6C24.067 23.0319 24.61 22.5715 25.2379 22.258C25.8219 22.0545 26.4509 22.0171 27.0549 22.15C27.1629 22.167 27.2799 22.183 27.3879 22.208C27.9947 22.3053 28.5711 22.5408 29.0726 22.8963C29.574 23.2517 29.9871 23.7176 30.2799 24.258C30.4926 25.0268 30.4752 25.841 30.2299 26.6H30.2309Z" fill="white"/>
</svg>
