<svg width="138" height="43" viewBox="0 0 138 43" fill="none" xmlns="http://www.w3.org/2000/svg">
<path fill-rule="evenodd" clip-rule="evenodd" d="M47.6912 14.0664H48.4008L53.1044 22.9461L57.8073 14.0664H58.5169L60.3806 26.4243H58.2867L57.1864 19.3628L53.4594 26.4243H52.7497L49.0044 19.3625L47.9223 26.4243H45.8281L47.6912 14.0664Z" fill="white"/>
<path fill-rule="evenodd" clip-rule="evenodd" d="M64.8487 14.0664V21.728C64.8487 23.6523 66.304 24.6061 67.741 24.6061C69.1969 24.6061 70.6342 23.6522 70.6342 21.728V14.0664H72.7641V21.728C72.7641 25.1354 70.2622 26.8482 67.7413 26.8482C65.2387 26.8482 62.7191 25.1354 62.7191 21.728V17.7567L64.8487 16.0437H62.7188V14.0664H64.8487Z" fill="white"/>
<path fill-rule="evenodd" clip-rule="evenodd" d="M75.2891 24.447H83.3296V26.4243H75.2891V14.0664H77.4187V22.5581L75.2891 24.447Z" fill="white"/>
<path fill-rule="evenodd" clip-rule="evenodd" d="M82.3906 16.0439V14.0664H92.6141V16.0439H88.5489V26.4246H86.4196V17.7569L88.5489 16.0442L82.3906 16.0439Z" fill="white"/>
<path fill-rule="evenodd" clip-rule="evenodd" d="M96.7315 14.0664V26.4243H94.6016V17.7567L96.7315 16.0439H94.6016V14.0664H96.7315Z" fill="white"/>
<path fill-rule="evenodd" clip-rule="evenodd" d="M105.389 23.3331L106.951 22.1144L110.608 27.2517L109.046 28.4702L105.389 23.3331H105.389ZM111.939 20.2438C111.939 15.9362 108.744 13.7823 105.549 13.7823C104.617 13.7655 103.693 13.951 102.841 14.326C101.989 14.7011 101.229 15.2565 100.614 15.9536L102.088 17.5073C102.506 16.9995 103.035 16.5927 103.635 16.3176C104.235 16.0425 104.889 15.9062 105.549 15.919C107.697 15.919 109.862 17.3487 109.862 20.2439C109.862 23.1392 107.698 24.5687 105.549 24.5687C103.383 24.5687 101.236 23.139 101.236 20.2438C101.209 19.3637 101.45 18.4961 101.928 17.7551H99.5674C99.2709 18.551 99.1265 19.3951 99.1417 20.2438C99.1417 24.5514 102.336 26.7051 105.549 26.7051C108.744 26.7046 111.939 24.5509 111.939 20.2438Z" fill="white"/>
<path fill-rule="evenodd" clip-rule="evenodd" d="M126.477 20.2446C126.477 24.5521 123.282 26.7058 120.087 26.7058C116.875 26.7058 113.68 24.5531 113.68 20.2446C113.668 19.3974 113.806 18.5547 114.089 17.7554H116.466C115.982 18.4945 115.734 19.3625 115.756 20.2446C115.756 23.1397 117.921 24.5695 120.086 24.5695C122.234 24.5695 124.4 23.1398 124.4 20.2446C124.4 17.3493 122.234 15.9196 120.086 15.9196C119.427 15.9069 118.772 16.0431 118.173 16.3181C117.574 16.5931 117.045 16.9997 116.626 17.5073L115.153 15.9536C115.767 15.2565 116.527 14.701 117.379 14.326C118.231 13.9509 119.155 13.7654 120.087 13.7823C123.282 13.7825 126.477 15.9364 126.477 20.2446Z" fill="white"/>
<path fill-rule="evenodd" clip-rule="evenodd" d="M128.517 16.0087C129.068 14.3672 130.772 13.5547 132.6 13.5547C134.237 13.5722 135.804 14.2245 136.965 15.3731L135.563 16.9269C135.168 16.5228 134.697 16.2008 134.176 15.9796C133.655 15.7584 133.095 15.6425 132.528 15.6385C131.463 15.6385 130.434 16.0097 130.434 17.2446C130.43 17.3605 130.454 17.4756 130.505 17.5799L128.518 16.0087H128.517ZM137.338 23.407C137.338 25.8072 134.961 26.9379 132.831 26.9379C131.002 26.9379 129.12 26.2845 127.984 24.7835L129.636 23.4951C130.417 24.5371 131.676 24.8543 132.901 24.8543C133.842 24.8543 135.244 24.5015 135.244 23.3367C135.244 21.0771 129.014 21.2003 128.392 17.7583H130.594C131.588 19.3453 137.338 19.4515 137.338 23.4062V23.407Z" fill="white"/>
<path d="M5.97691 0H0V5.88377H5.97691V0Z" fill="#FF174F"/>
<path d="M11.8275 5.82031H5.91406V11.7041H11.8275V5.82031Z" fill="#FF174F"/>
<path d="M5.97692 11.6445H0V17.5276H5.97692V11.6445Z" fill="#FF174F"/>
<path d="M17.6791 0H11.7656V5.88375H17.6791V0Z" fill="#FF174F"/>
<path fill-rule="evenodd" clip-rule="evenodd" d="M0.0626343 21.0239V20.9762C0.0616571 20.0659 0.122149 19.1567 0.243701 18.2545H6.65296V12.4278H12.507V6.60088H18.361V0.222847C19.2694 0.102931 20.1847 0.0428406 21.101 0.0429695H21.1495C32.7992 0.0399676 42.2452 9.43207 42.2474 21.0203C42.2474 32.6123 32.8027 42.0058 21.153 42.0048C9.50515 42.0048 0.0614942 32.6104 0.0625001 21.022L0.0626343 21.0239ZM12.3864 23.9374V18.2546H6.67712V23.9374H3.12846V27.4621H6.67712V23.9374H12.3864ZM26.7742 34.2722C34.1289 34.2675 40.0875 28.3342 40.0846 21.0185C40.0815 13.7028 34.1178 7.77416 26.7633 7.77577C19.4115 7.77577 13.4491 13.7055 13.4475 21.0212C13.4475 28.3437 19.4163 34.277 26.776 34.2722H26.7742Z" fill="#FF174F"/>
<path fill-rule="evenodd" clip-rule="evenodd" d="M20.6172 27.718V17.6473C20.6168 17.0926 20.7286 16.5433 20.9458 16.0323C21.1585 15.5297 21.4663 15.0723 21.8525 14.6851C22.2428 14.3032 22.7013 13.9972 23.2044 13.7827C23.7194 13.5674 24.2724 13.4567 24.831 13.457H24.8808C25.9187 13.4612 26.9181 13.8493 27.6844 14.5457C28.066 14.1966 28.5106 13.9226 28.9948 13.7383C29.4675 13.5524 29.9713 13.4573 30.4796 13.458H30.5338C31.0906 13.4581 31.6417 13.5687 32.155 13.7833C32.6593 13.9966 33.1182 14.303 33.5079 14.686C33.8955 15.0722 34.2034 15.5298 34.4147 16.0333C34.6332 16.5441 34.7463 17.0933 34.7472 17.6483V27.719H31.9276V17.6731C31.9288 17.4846 31.8903 17.298 31.8148 17.1251C31.7396 16.9596 31.6354 16.8088 31.5071 16.6798C31.2416 16.4161 30.8818 16.268 30.5067 16.268C30.1315 16.268 29.7717 16.4161 29.5062 16.6798C29.2434 16.9443 29.0956 17.3008 29.0945 17.6727V27.7183H26.266V17.6726C26.2667 17.4846 26.2299 17.2984 26.1578 17.1246C26.0891 16.9579 25.9876 16.8065 25.8594 16.6792C25.73 16.5517 25.5775 16.4497 25.4101 16.3786C25.2346 16.3066 25.0465 16.2702 24.8568 16.2714C24.6671 16.271 24.4792 16.3074 24.3035 16.3786C24.0492 16.4872 23.8325 16.6676 23.6802 16.8976C23.5279 17.1275 23.4468 17.3968 23.4469 17.6721V27.718L20.6172 27.718Z" fill="#FF174F"/>
</svg>
